# xmcd CD database file
#
# Track frame offsets:
#	150
#	9615
#	89576
#	188866
#
# Disc length: 2863 seconds
#
# Revision: 0
# Processed by: cddbd v1.5.2PL0 Copyright (c) Steve Scherf et al.
# Submitted via: CDex 1.70beta2
#
DISCID=2c0b2d04
DTITLE=おおきく振りかぶって - DJCD 西浦高校放送室
DYEAR=2007
DGENRE=アニメ・特撮
TTITLE0=プレイボール - オープニング・トーク
TTITLE1=ラジオDJに挑戦 - 西浦バッテリーの実力
TTITLE2=ライバル登場 - 桐青のエース・高瀬準太
TTITLE3=ゲーム・セット - エンディング・トーク
EXTD=YEAR: 2007
EXTT0=
EXTT1=
EXTT2=
EXTT3=
PLAYORDER=
